<svg xmlns="http://www.w3.org/2000/svg" viewBox="0 0 512 512">
  <defs>
    <linearGradient id="grad" x1="0%" y1="0%" x2="100%" y2="100%">
      <stop offset="0%" style="stop-color:#6366f1"/>
      <stop offset="100%" style="stop-color:#4f46e5"/>
    </linearGradient>
  </defs>
  <rect width="512" height="512" rx="96" fill="url(#grad)"/>
  <rect x="80" y="120" width="352" height="312" rx="24" fill="white"/>
  <rect x="80" y="120" width="352" height="72" rx="24" fill="#e0e7ff"/>
  <circle cx="152" cy="100" r="20" fill="white"/>
  <circle cx="360" cy="100" r="20" fill="white"/>
  <rect x="132" y="80" width="40" height="60" rx="8" fill="#a5b4fc"/>
  <rect x="340" y="80" width="40" height="60" rx="8" fill="#a5b4fc"/>
  <g fill="#6366f1">
    <rect x="120" y="220" width="56" height="56" rx="8"/>
    <rect x="196" y="220" width="56" height="56" rx="8" opacity="0.3"/>
    <rect x="272" y="220" width="56" height="56" rx="8" opacity="0.3"/>
    <rect x="348" y="220" width="56" height="56" rx="8" opacity="0.3"/>
    <rect x="120" y="296" width="56" height="56" rx="8" opacity="0.3"/>
    <rect x="196" y="296" width="56" height="56" rx="8" opacity="0.3"/>
    <rect x="272" y="296" width="56" height="56" rx="8"/>
    <rect x="348" y="296" width="56" height="56" rx="8" opacity="0.3"/>
    <rect x="120" y="372" width="56" height="56" rx="8" opacity="0.3"/>
    <rect x="196" y="372" width="56" height="56" rx="8" opacity="0.3"/>
  </g>
  <circle cx="300" cy="324" r="12" fill="#f97316"/>
  <circle cx="376" cy="248" r="12" fill="#8b5cf6"/>
</svg>
